<?xml version="1.0" encoding="UTF-8"?>
<!DOCTYPE svg PUBLIC "-//W3C//DTD SVG 1.1//EN" "http://www.w3.org/Graphics/SVG/1.1/DTD/svg11.dtd">
<!-- Creator: CorelDRAW 2020 (64 Bit) -->
<svg xmlns="http://www.w3.org/2000/svg" xml:space="preserve" width="219.024mm" height="46.0751mm" version="1.1" style="shape-rendering:geometricPrecision; text-rendering:geometricPrecision; image-rendering:optimizeQuality; fill-rule:evenodd; clip-rule:evenodd"
viewBox="0 0 21901.32 4607.29"
 xmlns:xlink="http://www.w3.org/1999/xlink"
 xmlns:xodm="http://www.corel.com/coreldraw/odm/2003">
 <defs>
  <style type="text/css">
   <![CDATA[
    .fil1 {fill:#FFCC29}
    .fil2 {fill:#316097}
    .fil0 {fill:#2B6CB3;fill-rule:nonzero}
   ]]>
  </style>
 </defs>
 <g id="Camada_x0020_1">
  <metadata id="CorelCorpID_0Corel-Layer"/>
  <path class="fil0" d="M5892.42 3788.96l685.64 0 -16.23 -1748.57 1578.16 1748.57 417.87 0 0 -3002.17 -681.57 0 16.23 1748.57 -1578.17 -1748.57 -421.93 0 0 3002.17zm4556 40.57c876.31,0 1464.58,-616.66 1464.58,-1541.66 0,-925 -588.27,-1541.66 -1464.58,-1541.66 -880.37,0 -1468.63,616.66 -1468.63,1541.66 0,925 588.26,1541.66 1468.63,1541.66zm0 -567.97c-454.39,0 -762.71,-389.47 -762.71,-973.68 0,-584.21 308.33,-973.68 762.71,-973.68 454.39,0 758.65,389.47 758.65,973.68 0,584.21 -304.27,973.68 -758.65,973.68zm3837.91 -2474.77l-2267.86 0 0 567.98 791.11 0 0 2434.19 685.64 0 0 -2434.19 791.11 0 0 -567.98zm344.84 3002.17l685.64 0 0 -3002.17 -685.64 0 0 3002.17zm3091.43 -2434.19l0 -567.98 -1833.76 0 0 3002.17 685.64 0 0 -1152.18 957.44 0 0 -567.98 -957.44 0 0 -714.03 1148.12 0zm405.7 2434.19l685.64 0 0 -3002.17 -685.64 0 0 3002.17zm2588.36 40.57c507.13,0 904.71,-206.9 1184.64,-612.6l-462.5 -413.82c-158.22,288.05 -369.19,458.45 -705.92,458.45 -474.67,0 -795.17,-389.47 -795.17,-977.74 0,-580.15 312.38,-969.62 774.88,-969.62 292.11,0 535.52,142 665.35,352.96l430.04 -442.21c-279.93,-328.62 -657.23,-478.73 -1099.45,-478.73 -884.42,0 -1476.74,608.55 -1476.74,1529.49 0,929.05 596.37,1553.82 1484.86,1553.82z"/>
  <path class="fil0" d="M4596.01 2070.47c67.93,671.65 -158.5,1366.91 -677.68,1876.73 -775.9,761.96 -1954.09,862.99 -2836.84,309.63l-957.19 279.07 271.05 -941.19c-612.62,-903.25 -512.26,-2142.62 294.15,-2934.59 679.85,-667.61 1668.61,-827.88 2496.8,-485.1 -272.87,216.45 -447.91,550.88 -447.91,926.24 0,652.61 529.04,1181.64 1181.65,1181.64 251.41,0 484.43,-78.57 675.98,-212.42zm-1706.55 -1829.05c-733.93,-208.22 -1532.88,-11.58 -2087.56,533.14 -737.65,724.42 -853.48,1875.38 -273.78,2730.08 27.68,40.8 35.04,87.09 21.39,134.46l-190.43 661.22 677.51 -197.52c45.56,-13.28 89.9,-7.12 130.11,18.09 838.5,525.61 1932.01,406.32 2639.22,-288.17 406.33,-399.02 633.17,-935.91 641.26,-1496.98 -165.62,70.81 -344.48,107.58 -527.15,107.58 -741.16,0 -1342.09,-600.93 -1342.09,-1342.1 0,-318.13 111.9,-620.91 311.51,-859.82zm-157.91 56.09c-263.64,-56.1 -536.31,-59.71 -802.14,-10.3 -401.79,74.67 -771.1,267 -1062.7,553.35 -704.43,691.79 -816.58,1794.56 -262.04,2612.16 43.03,63.43 54.94,138.33 33.73,211.98l-143.94 499.81 516.25 -150.5c70.68,-20.61 142.75,-10.59 205.13,28.52 802.78,503.22 1849.55,387.78 2525.29,-275.8 353.47,-347.11 567.49,-806.02 607.1,-1296.03 -138.31,43.19 -282.65,65.13 -428.19,65.13 -792.21,0 -1434.58,-642.38 -1434.58,-1434.59 0,-288.08 86.07,-567.41 246.1,-803.73z"/>
  <path class="fil1" d="M3920.03 76.87c565.74,0 1024.37,458.63 1024.37,1024.38 0,565.74 -458.63,1024.37 -1024.37,1024.37 -565.75,0 -1024.38,-458.63 -1024.38,-1024.37 0,-565.75 458.63,-1024.38 1024.38,-1024.38z"/>
  <path class="fil0" d="M3662.4 402.53c-3.3,-50.06 34.1,-93.31 84.03,-97.79 16.01,-1.43 31.84,-2.51 47.54,-3.19 44.49,-1.97 86.47,-2.97 126.06,-2.97 39.54,0 81.09,1 124.59,2.97 16.44,0.75 33.18,1.94 50.36,3.52 49.37,4.55 85.91,48.08 82.68,97.6l-62.46 943.04c-2.99,44.32 -37.15,80.4 -81.33,85.31 -9.96,1.07 -19.44,2 -28.54,2.8 -30.01,2.54 -58.48,3.76 -85.31,3.76 -31.72,0 -69.54,-2.37 -113.41,-7.17 -44.3,-4.84 -78.83,-40.84 -81.76,-85.35l-62.46 -942.53zm257.63 1197.12c30.74,0 61.78,1.19 93.19,3.55 8.01,0.61 16.07,1.29 24.26,2.04 44.37,4.13 79.57,39.41 83.23,83.77l0.06 0.75c1.9,23.32 2.33,45.55 1.35,66.67 -1.04,20.94 -3.55,42.77 -7.52,65.44 -0.12,0.57 -0.18,1.15 -0.3,1.76 -7.28,40.87 -41.38,71.64 -82.75,75.23 -8.37,0.75 -16.56,1.39 -24.68,1.97 -29.34,2.05 -58.3,3.08 -86.84,3.08 -28.54,0 -57.57,-1.03 -86.84,-3.08 -8.12,-0.58 -16.31,-1.22 -24.68,-1.97 -41.37,-3.59 -75.47,-34.36 -82.75,-75.27 -0.06,-0.57 -0.18,-1.15 -0.3,-1.72 -3.97,-22.67 -6.48,-44.5 -7.46,-65.44 -1.04,-21.12 -0.61,-43.35 1.29,-66.67l0.06 -0.67c3.6,-44.44 38.86,-79.72 83.23,-83.85 8.19,-0.75 16.25,-1.43 24.26,-2.04 31.41,-2.36 62.45,-3.55 93.19,-3.55z"/>
  <path class="fil2" d="M783.27 2451.64l2247.31 0c75.53,0 137.33,61.8 137.33,137.34l0 0c0,75.54 -61.81,137.33 -137.33,137.33l-2247.31 0c-75.54,0 -137.33,-61.8 -137.33,-137.33l0 0c0,-75.55 61.8,-137.34 137.33,-137.34z"/>
  <path class="fil2" d="M783.27 3013.48l1454.52 0c75.54,0 137.33,61.8 137.33,137.34l0 0c0,75.54 -61.8,137.33 -137.33,137.33l-1454.52 0c-75.54,0 -137.33,-61.8 -137.33,-137.33l0 0c0,-75.55 61.8,-137.34 137.33,-137.34z"/>
  <path class="fil2" d="M783.27 1843.03l1685.48 0c75.54,0 137.33,61.8 137.33,137.33l0 0c0,75.54 -61.8,137.33 -137.33,137.33l-1685.48 0c-75.54,0 -137.33,-61.8 -137.33,-137.33l0 0c0,-75.54 61.8,-137.33 137.33,-137.33z"/>
  <path class="fil2" d="M2787.13 3013.48l243.46 0c75.54,0 137.33,61.8 137.33,137.34l0 0c0,75.54 -61.8,137.33 -137.33,137.33l-243.46 0c-75.54,0 -137.33,-61.8 -137.33,-137.33l0 0c0,-75.55 61.8,-137.34 137.33,-137.34z"/>
 </g>
</svg>
